<svg id="visual" viewBox="0 0 900 299" width="900" height="299" xmlns="http://www.w3.org/2000/svg" xmlns:xlink="http://www.w3.org/1999/xlink" version="1.1"><rect x="0" y="0" width="900" height="299" fill="#060c11"></rect><path d="M0 201L15 188.2C30 175.3 60 149.7 90 149.3C120 149 150 174 180 175C210 176 240 153 270 142.8C300 132.7 330 135.3 360 137.5C390 139.7 420 141.3 450 144.7C480 148 510 153 540 151.2C570 149.3 600 140.7 630 155.8C660 171 690 210 720 207.5C750 205 780 161 810 143.3C840 125.7 870 134.3 885 138.7L900 143L900 0L885 0C870 0 840 0 810 0C780 0 750 0 720 0C690 0 660 0 630 0C600 0 570 0 540 0C510 0 480 0 450 0C420 0 390 0 360 0C330 0 300 0 270 0C240 0 210 0 180 0C150 0 120 0 90 0C60 0 30 0 15 0L0 0Z" fill="#1e4083"></path><path d="M0 156L15 145.8C30 135.7 60 115.3 90 123C120 130.7 150 166.3 180 174.3C210 182.3 240 162.7 270 151.5C300 140.3 330 137.7 360 148.2C390 158.7 420 182.3 450 177.7C480 173 510 140 540 129.5C570 119 600 131 630 150.2C660 169.3 690 195.7 720 206.8C750 218 780 214 810 194C840 174 870 138 885 120L900 102L900 0L885 0C870 0 840 0 810 0C780 0 750 0 720 0C690 0 660 0 630 0C600 0 570 0 540 0C510 0 480 0 450 0C420 0 390 0 360 0C330 0 300 0 270 0C240 0 210 0 180 0C150 0 120 0 90 0C60 0 30 0 15 0L0 0Z" fill="#184d8f"></path><path d="M0 163L15 161.7C30 160.3 60 157.7 90 148C120 138.3 150 121.7 180 112.5C210 103.3 240 101.7 270 117.7C300 133.7 330 167.3 360 164.7C390 162 420 123 450 120C480 117 510 150 540 164.7C570 179.3 600 175.7 630 165.5C660 155.3 690 138.7 720 141.3C750 144 780 166 810 179C840 192 870 196 885 198L900 200L900 0L885 0C870 0 840 0 810 0C780 0 750 0 720 0C690 0 660 0 630 0C600 0 570 0 540 0C510 0 480 0 450 0C420 0 390 0 360 0C330 0 300 0 270 0C240 0 210 0 180 0C150 0 120 0 90 0C60 0 30 0 15 0L0 0Z" fill="#105a9b"></path><path d="M0 70L15 86.2C30 102.3 60 134.7 90 137.2C120 139.7 150 112.3 180 94.5C210 76.7 240 68.3 270 80.3C300 92.3 330 124.7 360 126.2C390 127.7 420 98.3 450 82.3C480 66.3 510 63.7 540 79.3C570 95 600 129 630 135.2C660 141.3 690 119.7 720 123.8C750 128 780 158 810 171.3C840 184.7 870 181.3 885 179.7L900 178L900 0L885 0C870 0 840 0 810 0C780 0 750 0 720 0C690 0 660 0 630 0C600 0 570 0 540 0C510 0 480 0 450 0C420 0 390 0 360 0C330 0 300 0 270 0C240 0 210 0 180 0C150 0 120 0 90 0C60 0 30 0 15 0L0 0Z" fill="#0667a6"></path><path d="M0 159L15 157.8C30 156.7 60 154.3 90 140.5C120 126.7 150 101.3 180 99.3C210 97.3 240 118.7 270 130.7C300 142.7 330 145.3 360 139.7C390 134 420 120 450 116C480 112 510 118 540 116.7C570 115.3 600 106.7 630 106C660 105.3 690 112.7 720 108.3C750 104 780 88 810 84.5C840 81 870 90 885 94.5L900 99L900 0L885 0C870 0 840 0 810 0C780 0 750 0 720 0C690 0 660 0 630 0C600 0 570 0 540 0C510 0 480 0 450 0C420 0 390 0 360 0C330 0 300 0 270 0C240 0 210 0 180 0C150 0 120 0 90 0C60 0 30 0 15 0L0 0Z" fill="#0073b0"></path><path d="M0 87L15 92.2C30 97.3 60 107.7 90 104C120 100.3 150 82.7 180 86C210 89.3 240 113.7 270 121.3C300 129 330 120 360 104.2C390 88.3 420 65.7 450 54.3C480 43 510 43 540 49C570 55 600 67 630 75.5C660 84 690 89 720 85.3C750 81.7 780 69.3 810 69.2C840 69 870 81 885 87L900 93L900 0L885 0C870 0 840 0 810 0C780 0 750 0 720 0C690 0 660 0 630 0C600 0 570 0 540 0C510 0 480 0 450 0C420 0 390 0 360 0C330 0 300 0 270 0C240 0 210 0 180 0C150 0 120 0 90 0C60 0 30 0 15 0L0 0Z" fill="#0080ba"></path><path d="M0 67L15 66.7C30 66.3 60 65.7 90 67.2C120 68.7 150 72.3 180 71.3C210 70.3 240 64.7 270 58.3C300 52 330 45 360 51.3C390 57.7 420 77.3 450 78.5C480 79.7 510 62.3 540 53.3C570 44.3 600 43.7 630 43.5C660 43.3 690 43.7 720 45C750 46.3 780 48.7 810 53C840 57.3 870 63.7 885 66.8L900 70L900 0L885 0C870 0 840 0 810 0C780 0 750 0 720 0C690 0 660 0 630 0C600 0 570 0 540 0C510 0 480 0 450 0C420 0 390 0 360 0C330 0 300 0 270 0C240 0 210 0 180 0C150 0 120 0 90 0C60 0 30 0 15 0L0 0Z" fill="#008dc3"></path><path d="M0 65L15 65C30 65 60 65 90 65.8C120 66.7 150 68.3 180 72C210 75.7 240 81.3 270 75.8C300 70.3 330 53.7 360 43.3C390 33 420 29 450 27.3C480 25.7 510 26.3 540 37.2C570 48 600 69 630 70.8C660 72.7 690 55.3 720 47.5C750 39.7 780 41.3 810 49.3C840 57.3 870 71.7 885 78.8L900 86L900 0L885 0C870 0 840 0 810 0C780 0 750 0 720 0C690 0 660 0 630 0C600 0 570 0 540 0C510 0 480 0 450 0C420 0 390 0 360 0C330 0 300 0 270 0C240 0 210 0 180 0C150 0 120 0 90 0C60 0 30 0 15 0L0 0Z" fill="#009acb"></path><path d="M0 50L15 50.7C30 51.3 60 52.7 90 54C120 55.3 150 56.7 180 55.7C210 54.7 240 51.3 270 50.8C300 50.3 330 52.7 360 48C390 43.3 420 31.7 450 26.8C480 22 510 24 540 26.7C570 29.3 600 32.7 630 31.3C660 30 690 24 720 21.8C750 19.7 780 21.3 810 24.5C840 27.7 870 32.3 885 34.7L900 37L900 0L885 0C870 0 840 0 810 0C780 0 750 0 720 0C690 0 660 0 630 0C600 0 570 0 540 0C510 0 480 0 450 0C420 0 390 0 360 0C330 0 300 0 270 0C240 0 210 0 180 0C150 0 120 0 90 0C60 0 30 0 15 0L0 0Z" fill="#00a7d2"></path><path d="M0 44L15 41.5C30 39 60 34 90 33C120 32 150 35 180 34.2C210 33.3 240 28.7 270 24.5C300 20.3 330 16.7 360 18.3C390 20 420 27 450 30.5C480 34 510 34 540 35.7C570 37.3 600 40.7 630 41.5C660 42.3 690 40.7 720 37.7C750 34.7 780 30.3 810 26.5C840 22.7 870 19.3 885 17.7L900 16L900 0L885 0C870 0 840 0 810 0C780 0 750 0 720 0C690 0 660 0 630 0C600 0 570 0 540 0C510 0 480 0 450 0C420 0 390 0 360 0C330 0 300 0 270 0C240 0 210 0 180 0C150 0 120 0 90 0C60 0 30 0 15 0L0 0Z" fill="#00b4d8"></path></svg>